<svg width="20" height="20" xmlns="http://www.w3.org/2000/svg" version="1.1" xml:space="preserve">
 <g>
  <title>Layer 1</title>
  <g stroke="null" id="Layer_1">
   <path stroke="null" d="m3.16667,18l8.66667,0l0,-1.41667l2.16667,0l0,-4.25c0,-2.06621 -1.04623,-3.81827 -2.48219,-4.3991c0.67708,-0.56702 1.12802,-1.55727 1.12802,-2.68423c0,-1.75737 -1.09335,-3.1875 -2.4375,-3.1875c-0.23156,0 -0.46123,0.04533 -0.68548,0.1321c-0.49644,-0.73065 -1.21821,-1.1946 -2.02285,-1.1946s-1.52642,0.46396 -2.02285,1.1946c-0.22425,-0.08677 -0.45392,-0.1321 -0.68548,-0.1321c-1.34415,0 -2.4375,1.43012 -2.4375,3.1875c0,1.12696 0.45094,2.11721 1.12802,2.68423c-1.43596,0.58083 -2.48219,2.3329 -2.48219,4.3991l0,4.25l2.16667,0l0,1.41667zm8.125,-0.70833l-7.58333,0l0,-0.70833l0,-4.60417c0,-0.11829 0.00569,-0.23517 0.01354,-0.35098c0.00271,-0.0379 0.00623,-0.07544 0.00948,-0.11333c0.00731,-0.08004 0.01679,-0.15902 0.0279,-0.23729c0.00569,-0.03967 0.01029,-0.07969 0.01679,-0.119c0.01679,-0.10165 0.03656,-0.20152 0.05904,-0.30033c0.01138,-0.04887 0.02492,-0.09633 0.03765,-0.1445c0.01463,-0.05596 0.03006,-0.11121 0.04658,-0.1661c0.01598,-0.05277 0.03277,-0.10519 0.05038,-0.1569c0.01733,-0.05065 0.03629,-0.10023 0.05525,-0.14981c0.02763,-0.07225 0.05688,-0.14308 0.08775,-0.21285c0.02708,-0.06056 0.05417,-0.12112 0.08342,-0.17956c0.02275,-0.04533 0.04713,-0.08925 0.07123,-0.13352c0.02546,-0.04675 0.05173,-0.09279 0.07881,-0.13777c0.02492,-0.04144 0.04983,-0.08252 0.0761,-0.12254c0.03413,-0.05206 0.0696,-0.10235 0.10563,-0.15194c0.03331,-0.04604 0.06744,-0.09137 0.10238,-0.13529c0.04306,-0.05383 0.08667,-0.1066 0.13217,-0.15725c0.02979,-0.03294 0.06067,-0.06446 0.09154,-0.09598c0.03548,-0.03612 0.07123,-0.07154 0.10806,-0.10554c0.03413,-0.03187 0.06825,-0.0634 0.10373,-0.0935c0.03575,-0.03046 0.07258,-0.05844 0.10915,-0.08677c0.06906,-0.05348 0.14002,-0.10342 0.21288,-0.14981c0.03656,-0.02337 0.07258,-0.04781 0.10996,-0.06942l0.0436,-0.0255c0.35317,-0.19302 0.74019,-0.30033 1.14617,-0.30033l1.625,0c0.40598,0 0.793,0.10731 1.1459,0.30069l0.0436,0.0255c0.03738,0.02125 0.0734,0.04604 0.10996,0.06942c0.07285,0.0464 0.14381,0.09633 0.21288,0.14981c0.03683,0.02833 0.07367,0.05631 0.10915,0.08677c0.03521,0.0301 0.0696,0.06162 0.10373,0.0935c0.03656,0.034 0.07258,0.06942 0.10806,0.10554c0.03088,0.03152 0.06175,0.06304 0.09154,0.09598c0.0455,0.05029 0.0891,0.10342 0.13217,0.15725c0.03521,0.04392 0.06906,0.08925 0.10238,0.13529c0.03602,0.04958 0.07177,0.09987 0.10563,0.15194c0.026,0.04002 0.05119,0.0811 0.0761,0.12254c0.02708,0.04498 0.05335,0.09102 0.07881,0.13777c0.0241,0.04427 0.04875,0.08783 0.07123,0.13352c0.02925,0.05844 0.0566,0.119 0.08342,0.17956c0.03088,0.06977 0.06013,0.14096 0.08775,0.21285c0.01896,0.04958 0.03792,0.09917 0.05525,0.14981c0.01788,0.05171 0.0344,0.10412 0.05038,0.1569c0.01652,0.05454 0.03169,0.11015 0.04658,0.1661c0.01273,0.04817 0.02627,0.09598 0.03765,0.1445c0.02275,0.09846 0.04252,0.19869 0.05904,0.30033c0.0065,0.03931 0.01138,0.07933 0.01679,0.119c0.01083,0.07827 0.02058,0.1576 0.0279,0.23729c0.00352,0.03754 0.00704,0.07544 0.00948,0.11333c0.00813,0.11546 0.01381,0.23233 0.01381,0.35062l0,4.60417l0,0.70833zm2.16667,-4.95833l0,3.54167l-1.625,0l0,-3.89583c0,-0.16823 -0.00785,-0.33398 -0.0214,-0.4976c-0.00325,-0.0386 -0.00948,-0.07615 -0.01327,-0.1144c-0.013,-0.12644 -0.02817,-0.25217 -0.04875,-0.37506c-0.00677,-0.04037 -0.01598,-0.07933 -0.02356,-0.11935c-0.02275,-0.12006 -0.04794,-0.23871 -0.07773,-0.35487c-0.01002,-0.03931 -0.02167,-0.07756 -0.0325,-0.11617c-0.03196,-0.1144 -0.0669,-0.22702 -0.10535,-0.33681c-0.01354,-0.0386 -0.0279,-0.07685 -0.04252,-0.11475c-0.04035,-0.10731 -0.08369,-0.21179 -0.13027,-0.31415c-0.01706,-0.03754 -0.03413,-0.07508 -0.05227,-0.11227c-0.04875,-0.10023 -0.10048,-0.19727 -0.15465,-0.29219c-0.01977,-0.03471 -0.03873,-0.06977 -0.05931,-0.10377c-0.05931,-0.0981 -0.12242,-0.19196 -0.18769,-0.28333c-0.01842,-0.02585 -0.03548,-0.05312 -0.05444,-0.07827c-0.08558,-0.11475 -0.17496,-0.22454 -0.26921,-0.3269c1.60523,0.05631 2.89792,1.78146 2.89792,3.89406zm-3.59585,-9.51965c0.11429,-0.02833 0.22967,-0.04285 0.34585,-0.04285c1.04515,0 1.89583,1.11208 1.89583,2.47917s-0.85069,2.47917 -1.89583,2.47917c-0.37185,0 -0.72963,-0.14167 -1.03621,-0.40517c0.00406,-0.0039 0.00731,-0.00885 0.0111,-0.0131c0.23319,-0.2426 0.43415,-0.53444 0.59556,-0.86346c0.00515,-0.01062 0.00975,-0.02125 0.0149,-0.03187c0.04685,-0.09775 0.08992,-0.19833 0.12946,-0.3021c0.0065,-0.017 0.01246,-0.034 0.01869,-0.051c0.03602,-0.0981 0.06825,-0.19869 0.09723,-0.30175c0.00596,-0.02125 0.01219,-0.0425 0.01788,-0.06375c0.02627,-0.09881 0.04875,-0.19975 0.06825,-0.30246c0.00488,-0.0255 0.01056,-0.05065 0.0149,-0.07615c0.01733,-0.10023 0.03033,-0.20223 0.0409,-0.30565c0.00298,-0.02727 0.00731,-0.05419 0.00948,-0.08181c0.01138,-0.1275 0.01788,-0.25748 0.01788,-0.38923c0,-0.14025 -0.00785,-0.27767 -0.02004,-0.41367c-0.00379,-0.04321 -0.01002,-0.08571 -0.01517,-0.12892c-0.01138,-0.09492 -0.02492,-0.18877 -0.04171,-0.28121c-0.00813,-0.04498 -0.01679,-0.0896 -0.02627,-0.13387c-0.02194,-0.10235 -0.04767,-0.20258 -0.07638,-0.30069c-0.00813,-0.02727 -0.01463,-0.05525 -0.02302,-0.08217c-0.04117,-0.13104 -0.08802,-0.25783 -0.14056,-0.38073c-0.00135,-0.00248 -0.0019,-0.0046 -0.00271,-0.00673zm-0.69333,-0.0765l0.01652,0.02798c0.01327,0.0216 0.02519,0.04427 0.03792,0.06623c0.13813,0.23765 0.24375,0.49654 0.31796,0.7696c0.00488,0.01771 0.01029,0.03506 0.0149,0.05312c0.03223,0.12715 0.0566,0.25712 0.07475,0.38958c0.00379,0.02762 0.00677,0.05596 0.00975,0.08394c0.01517,0.13635 0.02573,0.27412 0.02573,0.41402c0,0.11617 -0.00677,0.23092 -0.0176,0.3446c-0.00244,0.02656 -0.00623,0.05277 -0.00921,0.07933c-0.0111,0.09385 -0.02492,0.18665 -0.04306,0.27767c-0.00379,0.01912 -0.00731,0.0386 -0.01138,0.05773c-0.04902,0.22808 -0.1189,0.44696 -0.20881,0.65096c-0.00163,0.00354 -0.00325,0.00708 -0.00488,0.01062c-0.0436,0.0981 -0.09235,0.19267 -0.1449,0.28333c-0.00488,0.00815 -0.00948,0.01665 -0.01435,0.02515c-0.11023,0.18665 -0.2386,0.35558 -0.38296,0.50292c-0.0084,0.0085 -0.01733,0.01665 -0.02573,0.02515c-0.0669,0.06623 -0.13677,0.12785 -0.2099,0.18417c-0.013,0.00992 -0.02519,0.0209 -0.03846,0.03046l-0.03088,0.02337c-0.3055,0.21533 -0.65406,0.33787 -1.02456,0.33787s-0.71906,-0.12254 -1.02429,-0.33787l-0.03088,-0.02337c-0.013,-0.00956 -0.02546,-0.02054 -0.03846,-0.03046c-0.07313,-0.05631 -0.143,-0.11794 -0.2099,-0.18417c-0.00867,-0.0085 -0.01733,-0.01665 -0.02573,-0.02515c-0.14408,-0.14733 -0.27246,-0.31627 -0.38296,-0.50292c-0.00488,-0.00815 -0.00948,-0.01665 -0.01435,-0.02515c-0.05254,-0.09067 -0.10102,-0.18523 -0.1449,-0.28333c-0.00163,-0.00354 -0.00325,-0.00708 -0.00488,-0.01062c-0.09019,-0.20435 -0.16006,-0.42323 -0.20908,-0.65131c-0.00406,-0.01877 -0.00758,-0.03825 -0.01138,-0.05702c-0.01815,-0.09137 -0.03196,-0.18417 -0.04306,-0.27802c-0.00298,-0.02656 -0.00677,-0.05242 -0.00921,-0.07933c-0.01083,-0.11369 -0.0176,-0.22844 -0.0176,-0.3446c0,-0.1399 0.01056,-0.27767 0.02573,-0.41367c0.00325,-0.02798 0.00596,-0.05596 0.00975,-0.08394c0.01815,-0.1321 0.04252,-0.26244 0.07475,-0.38958c0.0046,-0.01806 0.01002,-0.03542 0.0149,-0.05312c0.07421,-0.27306 0.17983,-0.53231 0.31796,-0.7696c0.01273,-0.02196 0.02465,-0.04498 0.03792,-0.06623l0.01652,-0.02798c0.39785,-0.62829 0.99829,-1.02921 1.66915,-1.02921s1.27129,0.40092 1.66915,1.02885zm-6.27331,2.51281c0,-1.36708 0.85069,-2.47917 1.89583,-2.47917c0.11619,0 0.23156,0.01452 0.34585,0.04285c-0.00081,0.00212 -0.00163,0.0046 -0.00244,0.00673c-0.05227,0.12254 -0.0994,0.24933 -0.14056,0.38037c-0.00867,0.02727 -0.01517,0.05525 -0.02329,0.08287c-0.02871,0.0981 -0.05444,0.19833 -0.07638,0.30033c-0.00948,0.04427 -0.01815,0.0889 -0.02627,0.13387c-0.01679,0.09244 -0.03033,0.18629 -0.04171,0.28121c-0.00515,0.04285 -0.0111,0.08535 -0.01517,0.12892c-0.01219,0.136 -0.02004,0.27342 -0.02004,0.41367c0,0.13175 0.0065,0.26173 0.01733,0.38958c0.00244,0.02762 0.00677,0.05419 0.00948,0.08146c0.01056,0.10342 0.02383,0.20577 0.0409,0.306c0.00433,0.0255 0.01002,0.05029 0.0149,0.07544c0.0195,0.10271 0.04198,0.204 0.06825,0.30317c0.00569,0.0216 0.01192,0.0425 0.01788,0.0641c0.02898,0.10271 0.06148,0.20329 0.09723,0.3014c0.00623,0.017 0.01246,0.03435 0.01896,0.05135c0.03954,0.10377 0.0826,0.20435 0.12946,0.3021c0.00515,0.01062 0.00975,0.02125 0.0149,0.03187c0.16142,0.32902 0.36265,0.6205 0.59556,0.86346c0.00379,0.00425 0.00731,0.00885 0.0111,0.0131c-0.30631,0.26279 -0.66408,0.40446 -1.03594,0.40446c-1.04515,0 -1.89583,-1.11208 -1.89583,-2.47917zm-1.35417,10.625l0,-3.54167c0,-2.1126 1.29269,-3.83775 2.89819,-3.89442c-0.09425,0.10235 -0.18363,0.2125 -0.26921,0.3269c-0.01896,0.02515 -0.03602,0.05242 -0.05444,0.07827c-0.06527,0.09137 -0.12838,0.18523 -0.18796,0.28369c-0.02031,0.03365 -0.03927,0.06871 -0.05904,0.10342c-0.05444,0.09492 -0.10617,0.19196 -0.15492,0.29254c-0.01788,0.03719 -0.03494,0.07437 -0.05227,0.11227c-0.04658,0.10235 -0.08992,0.20683 -0.13027,0.31415c-0.01435,0.03825 -0.02871,0.07615 -0.04252,0.11475c-0.03873,0.10979 -0.0734,0.22242 -0.10535,0.33681c-0.01083,0.03896 -0.02248,0.07685 -0.0325,0.11617c-0.02979,0.11652 -0.05498,0.23517 -0.078,0.35558c-0.00758,0.03967 -0.01652,0.07862 -0.02329,0.11865c-0.02058,0.12325 -0.03575,0.24898 -0.04875,0.37577c-0.00406,0.03825 -0.01002,0.07544 -0.01327,0.11404c-0.01354,0.16327 -0.0214,0.32902 -0.0214,0.49725l0,3.89583l-1.625,0z" id="id_101" fill=" rgb(235, 213, 14)"/>
  </g>
  <g id="svg_1"/>
 </g>

</svg>